<?xml version="1.0" encoding="UTF-8"?>
<svg height="16px" viewBox="0 0 16 16" width="16px" xmlns="http://www.w3.org/2000/svg">
    <path d="m 7.308594 1.664062 h 1.382812 z m 0 0" fill="none" stroke="#2e3335" stroke-width="1.98705"/>
    <path d="m 2.769531 0.152344 c -0.644531 0 -1.167969 0.515625 -1.167969 1.160156 v 13.375 c 0 0.644531 0.523438 1.160156 1.167969 1.160156 h 10.460938 c 0.644531 0 1.167969 -0.515625 1.167969 -1.160156 v -13.375 c 0 -0.644531 -0.523438 -1.160156 -1.167969 -1.160156 z m 5.230469 1.066406 c 0.320312 -0.003906 0.582031 0.257812 0.582031 0.578125 c 0 0.15625 -0.0625 0.300781 -0.171875 0.410156 s -0.253906 0.171875 -0.410156 0.171875 s -0.300781 -0.0625 -0.410156 -0.171875 s -0.171875 -0.253906 -0.171875 -0.410156 c 0 -0.320313 0.261719 -0.582031 0.582031 -0.578125 z m 0.332031 3.1875 h 0.195313 c 0.242187 0 0.441406 0.152344 0.441406 0.339844 v 0.371094 c 0.042969 0.105468 0.09375 0.21875 0.15625 0.316406 v 0.003906 c 0.226562 0.351562 0.511719 0.648438 1.28125 1.289062 c 0.570312 0.480469 0.773438 0.660157 1.007812 0.902344 c 0.308594 0.332032 0.511719 0.625 0.609376 0.921875 c 0.15625 0.5 0 1.164063 -0.40625 1.804688 c -0.0625 0.097656 -0.109376 0.164062 -0.148438 0.214843 c -0.035156 0.050782 -0.0625 0.078126 -0.101562 0.101563 h -0.003907 c -0.035156 0.015625 -0.078125 0.027344 -0.132812 0.042969 c -0.050781 0.011718 -0.101563 0.019531 -0.144531 0.019531 c -0.046876 0 -0.101563 -0.007813 -0.15625 -0.015625 c -0.050782 -0.011719 -0.101563 -0.027344 -0.140626 -0.050781 c -0.039062 -0.015625 -0.070312 -0.042969 -0.09375 -0.066407 c -0.019531 -0.03125 -0.039062 -0.058593 -0.039062 -0.089843 c 0 -0.027344 0.015625 -0.046875 0.027344 -0.066407 c 0.011718 -0.019531 0.027344 -0.042968 0.039062 -0.066406 l 0.003906 -0.003906 h 0.003907 c 0.285156 -0.347656 0.484375 -0.75 0.5625 -1.121094 c 0.027343 -0.132812 0.023437 -0.367187 0.011719 -0.457031 c -0.121094 -0.542969 -0.796876 -1.140625 -2.296876 -1.960937 h -0.003906 l -0.035156 -0.019532 v 5.449219 c 0.03125 0.042969 0.066406 0.082031 0.085938 0.128906 c 0.054687 0.128907 0.050781 0.351563 0.019531 0.488281 l -0.003907 0.003907 v 0.003906 c -0.144531 0.421875 -0.585937 0.824219 -1.214843 1.128906 c -0.527344 0.25 -1.136719 0.417969 -1.730469 0.492188 h -0.003906 c -0.238282 0.019531 -0.695313 0.019531 -0.894532 0 c -0.660156 -0.09375 -1.121093 -0.324219 -1.269531 -0.691407 c -0.054687 -0.121093 -0.046875 -0.339843 -0.015625 -0.480468 v -0.003906 c 0.148438 -0.421876 0.589844 -0.824219 1.230469 -1.128907 c 0.5625 -0.28125 1.21875 -0.449219 1.859375 -0.5 v -0.003906 h 0.003906 l 0.074219 -0.003906 v 0.007812 c 0.210937 -0.007812 0.558594 0 0.722656 0.019531 h 0.003907 c 0.019531 0.003907 0.035156 0.007813 0.054687 0.011719 v -6.996093 c 0 -0.089844 0.046875 -0.175782 0.128906 -0.238282 c 0.085938 -0.0625 0.195313 -0.101562 0.3125 -0.101562 z m 0 0" fill="#2e3335"/>
</svg>
