<?xml version="1.0" encoding="UTF-8"?>
<svg height="128px" viewBox="0 0 128 128" width="128px" xmlns="http://www.w3.org/2000/svg" xmlns:xlink="http://www.w3.org/1999/xlink">
    <linearGradient id="a" gradientUnits="userSpaceOnUse" x1="19.99971" x2="107.99971" y1="65.761007" y2="65.761007">
        <stop offset="0" stop-color="#c01c28"/>
        <stop offset="0.0454546" stop-color="#f66151"/>
        <stop offset="0.0909091" stop-color="#c01c28"/>
        <stop offset="0.909091" stop-color="#c01c28"/>
        <stop offset="0.954545" stop-color="#f66151"/>
        <stop offset="1" stop-color="#c01c28"/>
    </linearGradient>
    <clipPath id="b">
        <rect height="128" width="128"/>
    </clipPath>
    <clipPath id="c">
        <rect height="128" width="128"/>
    </clipPath>
    <filter id="d" height="100%" width="100%" x="0%" y="0%">
        <feColorMatrix in="SourceGraphic" type="matrix" values="0 0 0 0 1 0 0 0 0 1 0 0 0 0 1 0 0 0 1 0"/>
    </filter>
    <mask id="e">
        <g clip-path="url(#c)" filter="url(#d)">
            <g clip-path="url(#b)">
                <path d="m 28 61.761719 h 72 c 4.417969 0 8 3.582031 8 8 v 42 c 0 4.417969 -3.582031 8 -8 8 h -72 c -4.417969 0 -8 -3.582031 -8 -8 v -42 c 0 -4.417969 3.582031 -8 8 -8 z m 0 0" fill="url(#a)"/>
                <path d="m 28 6.898438 c -4.433594 0 -8 3.570312 -8 8 v 92 c 0 4.433593 3.566406 8 8 8 h 72 c 4.433594 0 8 -3.566407 8 -8 v -92 c 0 -4.429688 -3.566406 -8 -8 -8 z m 36 7.335937 c 2.210938 0 4 1.789063 4 4 c 0 2.207031 -1.789062 4 -4 4 c -2.207031 0 -4 -1.792969 -4 -4 c 0 -2.210937 1.792969 -4 4 -4 z m 0 0" fill="#ed333b"/>
                <path d="m 39.507812 32.710938 h 48.984376 c 5.015624 0 9.085937 3.730468 9.085937 8.328124 v 58.175782 c 0 4.597656 -4.070313 8.324218 -9.085937 8.324218 h -48.984376 c -5.015624 0 -9.082031 -3.726562 -9.082031 -8.324218 v -58.175782 c 0 -4.597656 4.066407 -8.328124 9.082031 -8.328124 z m 0 0" fill="#ffffff"/>
                <path d="m 64 13.25 c -2.207031 0 -4 1.792969 -4 4 c 0 0.167969 0.011719 0.332031 0.035156 0.492188 c 0.246094 -2 1.949219 -3.503907 3.964844 -3.507813 c 2.011719 0 3.710938 1.492187 3.96875 3.488281 c 0.019531 -0.15625 0.03125 -0.3125 0.03125 -0.472656 c 0 -2.207031 -1.789062 -4 -4 -4 z m 0 0" fill="#a51d2d"/>
                <path d="m 66.300781 49.566406 v 5.53125 h 1.117188 l 0.988281 0.714844 c 6.390625 4.558594 9.335938 7.886719 9.863281 11.027344 c 0.0625 0.53125 0.0625 1.816406 -0.066406 2.613281 c -0.328125 2.085937 -1.175781 4.34375 -2.417969 6.289063 c -0.128906 0.269531 -0.257812 0.484374 -0.257812 0.625 c 0 0.175781 0.191406 0.53125 0.445312 0.660156 c 0.207032 0.183594 0.785156 0.3125 1.117188 0.3125 c 0.253906 0 0.847656 -0.183594 1.050781 -0.3125 c 0.191406 -0.128906 0.449219 -0.574219 0.972656 -1.640625 c 1.707031 -3.5 2.359375 -7.132813 1.707031 -9.832031 c -0.398437 -1.597657 -1.246093 -3.1875 -2.550781 -5 c -0.988281 -1.332032 -1.832031 -2.3125 -4.253906 -4.96875 c -3.265625 -3.546876 -4.507813 -5.226563 -5.484375 -7.21875 c -0.652344 -1.328126 -1.113281 -2.96875 -1.113281 -4.070313 v -0.269531 h -1.117188 z m 0 0" fill="#5e5c64"/>
                <path d="m 67.800075 93.093609 h 1.144736 v -61.761274 h -1.144736 z m 0 0" fill="#5e5c64" stroke="#5e5c64" stroke-linejoin="round" stroke-width="5.24721" transform="matrix(0.716595 0 0 0.716595 16.813251 21.981003)"/>
                <path d="m 59.898438 83.261719 c -2.679688 0.277343 -5.417969 1.199219 -7.777344 2.738281 c -2.679688 1.640625 -4.507813 3.832031 -5.097656 6.078125 c -0.128907 0.714844 -0.128907 1.972656 0.0625 2.523437 c 0.589843 1.921876 2.421874 3.121094 5.164062 3.617188 c 0.78125 0.109375 2.753906 0.109375 3.726562 0 c 2.484376 -0.386719 5.035157 -1.320312 7.25 -2.6875 c 2.613282 -1.640625 4.449219 -3.832031 5.039063 -6.078125 c 0.125 -0.714844 0.125 -1.972656 -0.066406 -2.574219 c -0.589844 -1.804687 -2.359375 -3.019531 -4.972657 -3.511718 c -0.714843 -0.105469 -2.546874 -0.164063 -3.328124 -0.105469 z m 0 0" fill="#5e5c64"/>
            </g>
        </g>
    </mask>
    <mask id="f">
        <g filter="url(#d)">
            <rect fill-opacity="0.8" height="128" width="128"/>
        </g>
    </mask>
    <linearGradient id="g" gradientTransform="matrix(0 0.37 -0.98462 0 295.38501 -30.360001)" gradientUnits="userSpaceOnUse" x1="300" x2="428" y1="235" y2="235">
        <stop offset="0" stop-color="#f9f06b"/>
        <stop offset="1" stop-color="#f5c211"/>
    </linearGradient>
    <clipPath id="h">
        <rect height="128" width="128"/>
    </clipPath>
    <clipPath id="i">
        <rect height="128" width="128"/>
    </clipPath>
    <path d="m 28 61.761719 h 72 c 4.417969 0 8 3.582031 8 8 v 42 c 0 4.417969 -3.582031 8 -8 8 h -72 c -4.417969 0 -8 -3.582031 -8 -8 v -42 c 0 -4.417969 3.582031 -8 8 -8 z m 0 0" fill="url(#a)"/>
    <path d="m 28 6.898438 c -4.433594 0 -8 3.570312 -8 8 v 92 c 0 4.433593 3.566406 8 8 8 h 72 c 4.433594 0 8 -3.566407 8 -8 v -92 c 0 -4.429688 -3.566406 -8 -8 -8 z m 36 7.335937 c 2.210938 0 4 1.789063 4 4 c 0 2.207031 -1.789062 4 -4 4 c -2.207031 0 -4 -1.792969 -4 -4 c 0 -2.210937 1.792969 -4 4 -4 z m 0 0" fill="#ed333b"/>
    <path d="m 39.507812 32.710938 h 48.984376 c 5.015624 0 9.085937 3.730468 9.085937 8.328124 v 58.175782 c 0 4.597656 -4.070313 8.324218 -9.085937 8.324218 h -48.984376 c -5.015624 0 -9.082031 -3.726562 -9.082031 -8.324218 v -58.175782 c 0 -4.597656 4.066407 -8.328124 9.082031 -8.328124 z m 0 0" fill="#ffffff"/>
    <path d="m 64 13.25 c -2.207031 0 -4 1.792969 -4 4 c 0 0.167969 0.011719 0.332031 0.035156 0.492188 c 0.246094 -2 1.949219 -3.503907 3.964844 -3.507813 c 2.011719 0 3.710938 1.492187 3.96875 3.488281 c 0.019531 -0.15625 0.03125 -0.3125 0.03125 -0.472656 c 0 -2.207031 -1.789062 -4 -4 -4 z m 0 0" fill="#a51d2d"/>
    <g fill="#5e5c64">
        <path d="m 66.300781 49.566406 v 5.53125 h 1.117188 l 0.988281 0.714844 c 6.390625 4.558594 9.335938 7.886719 9.863281 11.027344 c 0.0625 0.53125 0.0625 1.816406 -0.066406 2.613281 c -0.328125 2.085937 -1.175781 4.34375 -2.417969 6.289063 c -0.128906 0.269531 -0.257812 0.484374 -0.257812 0.625 c 0 0.175781 0.191406 0.53125 0.445312 0.660156 c 0.207032 0.183594 0.785156 0.3125 1.117188 0.3125 c 0.253906 0 0.847656 -0.183594 1.050781 -0.3125 c 0.191406 -0.128906 0.449219 -0.574219 0.972656 -1.640625 c 1.707031 -3.5 2.359375 -7.132813 1.707031 -9.832031 c -0.398437 -1.597657 -1.246093 -3.1875 -2.550781 -5 c -0.988281 -1.332032 -1.832031 -2.3125 -4.253906 -4.96875 c -3.265625 -3.546876 -4.507813 -5.226563 -5.484375 -7.21875 c -0.652344 -1.328126 -1.113281 -2.96875 -1.113281 -4.070313 v -0.269531 h -1.117188 z m 0 0"/>
        <path d="m 65.39844574463 88.69141774136 h 0.82031209392 v -44.25782014203 h -0.82031209392 z m 0 0" stroke="#5e5c64" stroke-linejoin="round" stroke-width="3.76012444995"/>
        <path d="m 59.898438 83.261719 c -2.679688 0.277343 -5.417969 1.199219 -7.777344 2.738281 c -2.679688 1.640625 -4.507813 3.832031 -5.097656 6.078125 c -0.128907 0.714844 -0.128907 1.972656 0.0625 2.523437 c 0.589843 1.921876 2.421874 3.121094 5.164062 3.617188 c 0.78125 0.109375 2.753906 0.109375 3.726562 0 c 2.484376 -0.386719 5.035157 -1.320312 7.25 -2.6875 c 2.613282 -1.640625 4.449219 -3.832031 5.039063 -6.078125 c 0.125 -0.714844 0.125 -1.972656 -0.066406 -2.574219 c -0.589844 -1.804687 -2.359375 -3.019531 -4.972657 -3.511718 c -0.714843 -0.105469 -2.546874 -0.164063 -3.328124 -0.105469 z m 0 0"/>
    </g>
    <g clip-path="url(#i)" mask="url(#e)">
        <g clip-path="url(#h)" mask="url(#f)">
            <path d="m 128 80.640625 v 47.359375 h -128 v -47.359375 z m 0 0" fill="url(#g)"/>
            <path d="m 13.308594 80.640625 l 47.355468 47.359375 h 21.214844 l -47.359375 -47.359375 z m 42.421875 0 l 47.363281 47.359375 h 21.214844 l -47.363282 -47.359375 z m 42.429687 0 l 29.839844 29.839844 v -21.210938 l -8.628906 -8.628906 z m -98.160156 7.90625 v 21.214844 l 18.238281 18.238281 h 21.214844 z m 0 0"/>
        </g>
    </g>
</svg>
